<?xml version="1.0" encoding="utf-8"?>
<!-- Generator: Adobe Illustrator 23.0.1, SVG Export Plug-In . SVG Version: 6.00 Build 0)  -->
<svg version="1.1" id="Layer_1" focusable="false" xmlns="http://www.w3.org/2000/svg" xmlns:xlink="http://www.w3.org/1999/xlink"
	 x="0px" y="0px" viewBox="0 0 448 512" style="enable-background:new 0 0 448 512;" xml:space="preserve">
<style type="text/css">
	.st0{fill:#FFFFA0;}
	.st1{fill:#FFF348;}
</style>
<path class="st0" d="M172.8,90C172.8,90,172.8,90,172.8,90h262.4c7.1,0,12.8-5.7,12.8-12.8c0,0,0,0,0,0V38.8
	c0-7.1-5.7-12.8-12.8-12.8c0,0,0,0,0,0H172.8c-7.1,0-12.8,5.7-12.8,12.8c0,0,0,0,0,0v38.3C160,84.3,165.7,90,172.8,90z"/>
<path class="st0" d="M448,333.2C448,333.2,448,333.2,448,333.2v-38.4c0-7.1-5.7-12.8-12.8-12.8c0,0,0,0,0,0H172.8
	c-7.1,0-12.8,5.7-12.8,12.8c0,0,0,0,0,0v38.3c0,7.1,5.7,12.8,12.8,12.8c0,0,0,0,0,0h262.3C442.3,346,448,340.3,448,333.2z"/>
<path class="st1" d="M432,142H16c-8.8,0-16,7.2-16,16v32c0,8.8,7.2,16,16,16h416c8.8,0,16-7.2,16-16v-32
	C448,149.2,440.8,142,432,142z"/>
<path class="st1" d="M432,410H16c-8.8,0-16,7.2-16,16v32c0,8.8,7.2,16,16,16h416c8.8,0,16-7.2,16-16v-32
	C448,417.2,440.8,410,432,410z"/>
</svg>
