<?xml version="1.0" encoding="utf-8"?>
<!-- Generator: Adobe Illustrator 23.0.1, SVG Export Plug-In . SVG Version: 6.00 Build 0)  -->
<svg version="1.1" id="Layer_1" focusable="false" xmlns="http://www.w3.org/2000/svg" xmlns:xlink="http://www.w3.org/1999/xlink"
	 x="0px" y="0px" viewBox="0 0 448 512" style="enable-background:new 0 0 448 512;" xml:space="preserve">

<path fill="#FFF348" stroke="#fff348" stroke-width="1" d="M16,132h416c8.8,0,16-7.2,16-16V76c0-8.8-7.2-16-16-16H16C7.2,60,0,67.2,0,76v40C0,124.8,7.2,132,16,132z"/>
<path fill="#ffffa0" stroke="#ffffa0" stroke-width="1" d="M16,302h416c8.8,0,16-7.2,16-16v-40c0-8.8-7.2-16-16-16H16c-8.8,0-16,7.2-16,16v40C0,294.8,7.2,302,16,302z"/>
<path fill="#FFF348" stroke="#fff348" stroke-width="1" d="M16,452h416c8.8,0,16-7.2,16-16v-40c0-8.8-7.2-16-16-16H16c-8.8,0-16,7.2-16,16v40C0,444.8,7.2,452,16,452z"/>
</svg>
