<?xml version="1.0" encoding="utf-8"?>
<!-- Generator: Adobe Illustrator 23.0.1, SVG Export Plug-In . SVG Version: 6.00 Build 0)  -->
<svg version="1.1" id="Layer_1" focusable="false" xmlns="http://www.w3.org/2000/svg" xmlns:xlink="http://www.w3.org/1999/xlink"
	 x="0px" y="0px" viewBox="0 0 512 512" style="enable-background:new 0 0 512 512;" xml:space="preserve">
<style type="text/css">
	.st0{fill:#FFFFA0;}
	.st1{fill:#FFFFFF;}
	.st2{fill:#FFF348;}
</style>
<g>
	<g>
		
			<ellipse transform="matrix(0.7071 -0.7071 0.7071 0.7071 -105.9674 256.172)" class="st0" cx="256.2" cy="256" rx="249" ry="246.4"/>
	</g>
</g>
<g>
	<g>
		
			<ellipse transform="matrix(0.7071 -0.7071 0.7071 0.7071 -105.9674 256.172)" class="st1" cx="256.2" cy="256" rx="200" ry="199.9"/>
	</g>
</g>
<g>
	<g>
		<path class="st2" d="M296.7,256.8c-0.5-0.5-0.5-1.2,0-1.6l61.4-61.4h0c4.7-4.7,4.7-12.3,0-17L336.3,155c-5.1-5.1-13.5-5.1-18.6,0
			l-60.6,60.6c-0.5,0.5-1.2,0.5-1.6,0L194.9,155c-5.1-5.1-13.5-5.1-18.6,0l-21,21c-5.1,5.1-5.1,13.5,0,18.6l60.6,60.6
			c0.5,0.5,0.5,1.2,0,1.6l-60.6,60.6c-5.1,5.1-5.1,13.5,0,18.6l21,21c5.1,5.1,13.5,5.1,18.6,0l60.6-60.6c0.5-0.5,1.2-0.5,1.6,0
			l60.6,60.6c5.1,5.1,13.5,5.1,18.6,0l21-21c5.1-5.1,5.1-13.5,0-18.6L296.7,256.8z"/>
	</g>
</g>
</svg>
